<?xml version="1.0" encoding="utf-8"?>
<!-- Generator: Adobe Illustrator 16.0.0, SVG Export Plug-In . SVG Version: 6.00 Build 0)  -->
<!DOCTYPE svg PUBLIC "-//W3C//DTD SVG 1.1//EN" "http://www.w3.org/Graphics/SVG/1.1/DTD/svg11.dtd">
<svg version="1.1" id="Layer_1" xmlns="http://www.w3.org/2000/svg" xmlns:xlink="http://www.w3.org/1999/xlink" x="0px" y="0px"
	 width="32px" height="32px" viewBox="0 0 32 32" enable-background="new 0 0 32 32" xml:space="preserve">
<g>
	<path fill="#767676" d="M6.973,1.45h0.245h17.778c0.49,0.021,0.898,0.188,1.225,0.505s0.5,0.719,0.52,1.208v20.809
		c-0.02,0.489-0.193,0.897-0.52,1.224c-0.326,0.327-0.734,0.5-1.225,0.521h-4.498v3.09c-0.02,0.612-0.219,1.057-0.596,1.332
		c-0.379,0.275-0.761,0.412-1.148,0.412c-0.266,0-0.479-0.041-0.643-0.122L6.33,25.716c-0.714-0.285-1.07-0.826-1.07-1.622V3.163
		c0.02-0.489,0.188-0.892,0.505-1.208C6.08,1.639,6.483,1.471,6.973,1.45z M19.091,28.806V8.09c0-0.163-0.071-0.275-0.214-0.336
		L7.064,2.827H6.973c-0.225,0-0.336,0.112-0.336,0.336v20.931c0,0.163,0.071,0.275,0.214,0.337l11.751,4.712
		c0.102,0.04,0.214,0.03,0.336-0.03C19.039,29.01,19.091,28.907,19.091,28.806z M25.334,23.972V3.163
		c0-0.224-0.123-0.336-0.367-0.336H10.646l8.751,3.642c0.734,0.306,1.102,0.847,1.102,1.621v16.249h4.469
		C25.211,24.339,25.334,24.216,25.334,23.972z M16.551,15.495c0.123-0.143,0.275-0.215,0.459-0.215s0.348,0.072,0.49,0.215
		s0.214,0.307,0.214,0.49v2.783c0,0.184-0.071,0.343-0.214,0.475c-0.143,0.133-0.307,0.199-0.49,0.199s-0.342-0.066-0.475-0.199
		c-0.133-0.132-0.198-0.291-0.198-0.475v-2.783C16.337,15.802,16.408,15.638,16.551,15.495z"/>
</g>
</svg>
