<?xml version="1.0" encoding="utf-8"?>
<!-- Generator: Adobe Illustrator 16.0.0, SVG Export Plug-In . SVG Version: 6.00 Build 0)  -->
<!DOCTYPE svg PUBLIC "-//W3C//DTD SVG 1.1//EN" "http://www.w3.org/Graphics/SVG/1.1/DTD/svg11.dtd">
<svg version="1.1" id="Layer_1" xmlns="http://www.w3.org/2000/svg" xmlns:xlink="http://www.w3.org/1999/xlink" x="0px" y="0px"
	 width="32px" height="32px" viewBox="0 0 32 32" enable-background="new 0 0 32 32" xml:space="preserve">
<g>
	<path fill="#767676" d="M31.3,21.264v2.326c0,0.469-0.152,0.867-0.459,1.193c-0.306,0.326-0.693,0.51-1.162,0.551v2.049
		c0,0.184-0.066,0.342-0.199,0.475s-0.296,0.199-0.489,0.199c-0.194,0-0.353-0.066-0.475-0.199s-0.184-0.291-0.184-0.475v-2.049
		H3.699v2.049c0,0.184-0.072,0.342-0.215,0.475s-0.306,0.199-0.489,0.199s-0.342-0.066-0.475-0.199s-0.198-0.291-0.198-0.475v-2.049
		c-0.47-0.041-0.852-0.225-1.147-0.551S0.721,24.059,0.7,23.59v-2.326l2.173-4.345v-5.233c0-0.469,0.147-0.892,0.443-1.27
		c0.296-0.377,0.668-0.627,1.117-0.75L5.26,9.452l0.244-3.794c0.041-0.489,0.234-0.892,0.582-1.208
		C6.433,4.133,6.851,3.964,7.34,3.944h17.32c0.489,0.021,0.907,0.189,1.255,0.505c0.346,0.316,0.54,0.719,0.581,1.208l0.245,3.825
		l0.826,0.184c0.448,0.123,0.82,0.373,1.117,0.75c0.295,0.378,0.443,0.801,0.443,1.27v5.233L31.3,21.264z M29.954,22.09H2.047v1.5
		c0,0.102,0.041,0.193,0.122,0.275c0.081,0.08,0.184,0.121,0.306,0.121h27.051c0.122,0,0.224-0.041,0.306-0.121
		c0.082-0.082,0.123-0.174,0.123-0.275V22.09z M29.525,20.744l-3.672-7.314H6.116l-3.642,7.314H29.525z M5.045,12.604V10.92
		L4.77,10.982c-0.143,0.041-0.271,0.127-0.382,0.26c-0.112,0.133-0.169,0.281-0.169,0.444v2.541L5.045,12.604z M15.327,12.083V5.321
		H7.34c-0.122,0-0.229,0.041-0.321,0.123S6.871,5.627,6.851,5.749l-0.429,6.334H15.327z M25.548,12.083l-0.398-6.334
		c-0.02-0.102-0.076-0.199-0.168-0.291s-0.199-0.138-0.321-0.138h-7.987v6.763H25.548z M27.781,14.226v-2.541
		c0-0.163-0.056-0.311-0.169-0.444c-0.111-0.132-0.239-0.219-0.382-0.26l-0.275-0.062v1.683L27.781,14.226z"/>
</g>
</svg>
