<?xml version="1.0" encoding="utf-8"?>
<!-- Generator: Adobe Illustrator 16.0.0, SVG Export Plug-In . SVG Version: 6.00 Build 0)  -->
<!DOCTYPE svg PUBLIC "-//W3C//DTD SVG 1.1//EN" "http://www.w3.org/Graphics/SVG/1.1/DTD/svg11.dtd">
<svg version="1.1" id="Layer_1" xmlns="http://www.w3.org/2000/svg" xmlns:xlink="http://www.w3.org/1999/xlink" x="0px" y="0px"
	 width="32px" height="32px" viewBox="0 0 32 32" enable-background="new 0 0 32 32" xml:space="preserve">
<g>
	<path fill="#767676" d="M31.773,17.3c0.204,0.572,0.041,1.062-0.489,1.469c-2.448,1.857-5.273,2.785-8.476,2.785
		c0.958,1,1.631,2.122,2.02,3.366c0.184,0.612,0.02,1.102-0.49,1.469c-2.447,1.856-5.232,2.784-8.353,2.784
		c-3.121,0-5.906-0.928-8.354-2.784c-0.51-0.367-0.673-0.856-0.49-1.469c0.408-1.244,1.082-2.366,2.019-3.366H9.069
		c-3.142,0-5.926-0.928-8.354-2.785c-0.53-0.407-0.693-0.896-0.489-1.469c0.469-1.428,1.224-2.646,2.264-3.656
		s2.274-1.738,3.703-2.188c-1.285-0.979-1.928-2.254-1.928-3.825c0.041-1.366,0.51-2.498,1.408-3.396
		C6.57,3.337,7.702,2.868,9.069,2.827c1.367,0.041,2.494,0.51,3.382,1.407c0.888,0.898,1.351,2.03,1.392,3.396
		c0,1.633-0.643,2.907-1.928,3.825l0.796,0.275c0.918-0.856,2.009-1.285,3.274-1.285c1.264,0,2.355,0.429,3.274,1.285l0.796-0.275
		c-1.285-0.918-1.928-2.192-1.928-3.825c0.04-1.366,0.504-2.498,1.392-3.396c0.888-0.897,2.015-1.366,3.382-1.407
		c1.366,0.041,2.504,0.51,3.412,1.407c0.906,0.898,1.381,2.03,1.422,3.396c0,1.571-0.643,2.846-1.928,3.825
		c1.428,0.449,2.662,1.178,3.703,2.188C30.55,14.653,31.305,15.872,31.773,17.3z M9.069,20.177c0.674,0,1.347-0.061,2.02-0.184
		c0.674-0.387,1.347-0.684,2.02-0.887c-1.285-0.98-1.928-2.266-1.928-3.855c0-0.837,0.215-1.622,0.643-2.356
		c-0.815-0.286-1.703-0.448-2.662-0.49H8.977c-1.754,0.042-3.3,0.536-4.636,1.484s-2.269,2.229-2.8,3.841
		C3.786,19.361,6.295,20.177,9.069,20.177z M6.652,5.244C5.979,5.938,5.647,6.759,5.657,7.708c0.01,0.948,0.332,1.754,0.964,2.417
		S8.04,11.13,8.977,11.15H9.13c0.938-0.021,1.724-0.362,2.356-1.025c0.632-0.663,0.959-1.474,0.979-2.433
		c-0.02-0.979-0.352-1.795-0.994-2.448c-0.643-0.652-1.438-0.983-2.387-0.994C8.135,4.24,7.325,4.571,6.652,5.244z M23.512,25.287
		c-0.551-1.652-1.602-2.979-3.151-3.978c-0.082-0.021-0.163-0.072-0.245-0.153c-1.285-0.734-2.668-1.102-4.146-1.102
		c-1.479,0-2.851,0.367-4.115,1.102c-0.082,0.081-0.164,0.133-0.245,0.153c-1.53,0.938-2.57,2.285-3.121,4.039
		c2.203,1.631,4.707,2.447,7.513,2.447C18.805,27.796,21.309,26.96,23.512,25.287z M18.402,12.833
		c-0.674-0.673-1.484-1.005-2.433-0.994c-0.948,0.01-1.744,0.342-2.387,0.994c-0.643,0.653-0.975,1.459-0.994,2.418
		c0.02,0.959,0.352,1.759,0.994,2.401s1.443,0.975,2.402,0.995c0.959-0.021,1.759-0.353,2.402-0.995s0.969-1.438,0.979-2.387
		S19.055,13.506,18.402,12.833z M22.9,20.177c2.835,0,5.354-0.836,7.558-2.51c-0.53-1.57-1.469-2.83-2.815-3.778
		c-1.346-0.948-2.896-1.442-4.65-1.484h-0.184c-0.939,0.042-1.826,0.204-2.662,0.49c0.428,0.734,0.643,1.52,0.643,2.356
		c0,1.55-0.643,2.835-1.928,3.855c0.673,0.203,1.346,0.5,2.02,0.887C21.554,20.116,22.227,20.177,22.9,20.177z M19.504,7.631
		c0.02,0.938,0.341,1.729,0.963,2.372c0.623,0.643,1.413,0.984,2.372,1.024h0.153c0.938-0.04,1.723-0.382,2.355-1.024
		s0.959-1.434,0.979-2.372c-0.021-0.979-0.353-1.79-0.995-2.433S23.879,4.225,22.9,4.204c-0.959,0.021-1.76,0.357-2.402,1.01
		C19.855,5.867,19.523,6.673,19.504,7.631z"/>
</g>
</svg>
